<svg width="22" height="22" viewBox="0 0 22 22" fill="none" xmlns="http://www.w3.org/2000/svg">
<g clip-path="url(#clip0_1603_96)">
<path d="M8.73512 10.1868H2.35961C1.59539 10.1868 0.973633 9.56502 0.973633 8.80079V2.42529C0.973633 1.66106 1.59539 1.03931 2.35961 1.03931H8.73512C9.49935 1.03931 10.1211 1.66106 10.1211 2.42529V8.80079C10.1211 9.56502 9.49935 10.1868 8.73512 10.1868ZM2.35961 1.8313C2.03209 1.8313 1.76562 2.09776 1.76562 2.42529V8.80079C1.76562 9.12832 2.03209 9.39478 2.35961 9.39478H8.73512C9.06265 9.39478 9.32911 9.12832 9.32911 8.80079V2.42529C9.32911 2.09776 9.06265 1.8313 8.73512 1.8313H2.35961Z" fill="#007C36" stroke="#007C36" stroke-width="0.5"/>
<path d="M19.8621 10.1868H13.4866C12.7223 10.1868 12.1006 9.56502 12.1006 8.80079V2.42529C12.1006 1.66106 12.7223 1.03931 13.4866 1.03931H19.8621C20.6263 1.03931 21.2481 1.66106 21.2481 2.42529V8.80079C21.2481 9.56502 20.6263 10.1868 19.8621 10.1868ZM13.4866 1.8313C13.159 1.8313 12.8926 2.09776 12.8926 2.42529V8.80079C12.8926 9.12832 13.159 9.39478 13.4866 9.39478H19.8621C20.1896 9.39478 20.4561 9.12832 20.4561 8.80079V2.42529C20.4561 2.09776 20.1896 1.8313 19.8621 1.8313H13.4866Z" fill="#007C36" stroke="#007C36" stroke-width="0.5"/>
<path d="M8.73512 21.3142H2.35961C1.59539 21.3142 0.973633 20.6925 0.973633 19.9282V13.5527C0.973633 12.7885 1.59539 12.1667 2.35961 12.1667H8.73512C9.49935 12.1667 10.1211 12.7885 10.1211 13.5527V19.9282C10.1211 20.6925 9.49935 21.3142 8.73512 21.3142ZM2.35961 12.9587C2.03209 12.9587 1.76562 13.2252 1.76562 13.5527V19.9282C1.76562 20.2558 2.03209 20.5222 2.35961 20.5222H8.73512C9.06265 20.5222 9.32911 20.2558 9.32911 19.9282V13.5527C9.32911 13.2252 9.06265 12.9587 8.73512 12.9587H2.35961Z" fill="#007C36" stroke="#007C36" stroke-width="0.5"/>
<path d="M16.6743 21.3142C14.1524 21.3142 12.1006 19.2624 12.1006 16.7405C12.1006 14.2185 14.1524 12.1667 16.6743 12.1667C19.1963 12.1667 21.2481 14.2185 21.2481 16.7405C21.2481 19.2624 19.1963 21.3142 16.6743 21.3142ZM16.6743 12.9587C14.5891 12.9587 12.8926 14.6552 12.8926 16.7405C12.8926 18.8257 14.5891 20.5222 16.6743 20.5222C18.7596 20.5222 20.4561 18.8257 20.4561 16.7405C20.4561 14.6552 18.7596 12.9587 16.6743 12.9587Z" fill="#007C36" stroke="#007C36" stroke-width="0.5"/>
</g>
<defs>
<clipPath id="clip0_1603_96">
<rect width="22" height="22" fill="white"/>
</clipPath>
</defs>
</svg>
