<svg width="24" height="23" viewBox="0 0 24 23" fill="none" xmlns="http://www.w3.org/2000/svg">
<path d="M8.31491 17.8898C7.85107 17.8898 7.39766 18.0274 7.01199 18.2851C6.62633 18.5428 6.32574 18.909 6.14824 19.3375C5.97074 19.7661 5.9243 20.2376 6.01479 20.6925C6.10528 21.1475 6.32864 21.5653 6.65661 21.8933C6.98459 22.2213 7.40247 22.4446 7.85739 22.5351C8.31231 22.6256 8.78384 22.5792 9.21237 22.4017C9.64089 22.2242 10.0072 21.9236 10.2649 21.5379C10.5225 21.1523 10.6601 20.6988 10.6601 20.235C10.6594 19.6132 10.4121 19.0171 9.97248 18.5774C9.53281 18.1378 8.93669 17.8905 8.31491 17.8898ZM8.31491 21.5711C8.05057 21.5711 7.79217 21.4927 7.57239 21.3459C7.3526 21.199 7.1813 20.9903 7.08014 20.7461C6.97899 20.5019 6.95252 20.2331 7.00409 19.9739C7.05566 19.7146 7.18295 19.4765 7.36986 19.2896C7.55677 19.1026 7.79491 18.9754 8.05417 18.9238C8.31342 18.8722 8.58215 18.8987 8.82636 18.9998C9.07058 19.101 9.27931 19.2723 9.42617 19.4921C9.57302 19.7119 9.65141 19.9703 9.65141 20.2346C9.65106 20.589 9.51014 20.9287 9.25957 21.1793C9.009 21.4298 8.66926 21.5708 8.31491 21.5711Z" fill="#191919" stroke="#191919" stroke-width="0.5"/>
<path d="M18.3071 17.8898C17.8433 17.8898 17.3898 18.0274 17.0042 18.2851C16.6185 18.5428 16.3179 18.909 16.1404 19.3375C15.9629 19.7661 15.9165 20.2376 16.007 20.6925C16.0975 21.1475 16.3208 21.5653 16.6488 21.8933C16.9768 22.2213 17.3947 22.4446 17.8496 22.5351C18.3045 22.6256 18.776 22.5792 19.2046 22.4017C19.6331 22.2242 19.9993 21.9236 20.257 21.5379C20.5147 21.1523 20.6523 20.6988 20.6523 20.235C20.6516 19.6132 20.4043 19.0171 19.9647 18.5774C19.525 18.1378 18.9289 17.8905 18.3071 17.8898ZM18.3071 21.5711C18.0428 21.5711 17.7844 21.4927 17.5646 21.3459C17.3448 21.199 17.1735 20.9903 17.0723 20.7461C16.9712 20.5019 16.9447 20.2331 16.9963 19.9739C17.0478 19.7146 17.1751 19.4765 17.362 19.2896C17.549 19.1026 17.7871 18.9754 18.0464 18.9238C18.3056 18.8722 18.5743 18.8987 18.8186 18.9998C19.0628 19.101 19.2715 19.2723 19.4184 19.4921C19.5652 19.7119 19.6436 19.9703 19.6436 20.2346C19.6432 20.589 19.5023 20.9287 19.2518 21.1793C19.0012 21.4298 18.6615 21.5708 18.3071 21.5711Z" fill="#191919" stroke="#191919" stroke-width="0.5"/>
<path d="M23.2316 3.90121L6.07992 3.64218L5.60942 2.21636C5.45512 1.74725 5.1568 1.33875 4.7569 1.04899C4.357 0.759235 3.8759 0.602986 3.38206 0.602478H1.60981C1.47605 0.602478 1.34777 0.655614 1.25319 0.750196C1.1586 0.844778 1.10547 0.973058 1.10547 1.10682C1.10547 1.24058 1.1586 1.36886 1.25319 1.46344C1.34777 1.55802 1.47605 1.61116 1.60981 1.61116H3.38206C3.66381 1.61194 3.93815 1.70148 4.16611 1.86706C4.39407 2.03264 4.56406 2.26584 4.65193 2.53354L5.2461 4.32955L7.98764 12.6148L7.74051 13.2132C7.5938 13.5687 7.53715 13.9548 7.5756 14.3375C7.61404 14.7201 7.74639 15.0872 7.96089 15.4064C8.17538 15.7255 8.46538 15.9867 8.80513 16.1668C9.14487 16.3469 9.52384 16.4403 9.90836 16.4387H20.1474C20.2812 16.4387 20.4095 16.3856 20.504 16.291C20.5986 16.1964 20.6518 16.0682 20.6518 15.9344C20.6518 15.8006 20.5986 15.6724 20.504 15.5778C20.4095 15.4832 20.2812 15.4301 20.1474 15.4301H9.90836C9.68934 15.4316 9.47336 15.3789 9.27966 15.2766C9.08597 15.1744 8.9206 15.0258 8.7983 14.8441C8.676 14.6624 8.60057 14.4532 8.57875 14.2353C8.55693 14.0174 8.58939 13.7974 8.67324 13.5951L8.8671 13.1274L19.9491 11.9927C20.5411 11.9317 21.0995 11.6885 21.5474 11.2967C21.9953 10.9048 22.3105 10.3837 22.4496 9.80506L23.7144 4.52271C23.732 4.44923 23.7328 4.37274 23.7168 4.29889C23.7009 4.22505 23.6685 4.15573 23.6221 4.09607C23.5758 4.03641 23.5166 3.98792 23.449 3.9542C23.3814 3.92047 23.3071 3.90236 23.2316 3.90121ZM21.4686 9.57074C21.3783 9.94615 21.1738 10.2843 20.8832 10.5385C20.5926 10.7928 20.2303 10.9506 19.8462 10.9902L8.88365 12.1135L6.41561 4.65606L22.5868 4.90031L21.4686 9.57074Z" fill="#191919" stroke="#191919" stroke-width="0.5"/>
</svg>
