<svg width="22" height="22" viewBox="0 0 22 22" fill="none" xmlns="http://www.w3.org/2000/svg">
<path d="M8.41188 10.1672H2.03637C1.27214 10.1672 0.650391 9.54549 0.650391 8.78126V2.40576C0.650391 1.64153 1.27214 1.01978 2.03637 1.01978H8.41188C9.17611 1.01978 9.79786 1.64153 9.79786 2.40576V8.78126C9.79786 9.54549 9.17611 10.1672 8.41188 10.1672ZM2.03637 1.81176C1.70884 1.81176 1.44238 2.07823 1.44238 2.40576V8.78126C1.44238 9.10879 1.70884 9.37525 2.03637 9.37525H8.41188C8.7394 9.37525 9.00587 9.10879 9.00587 8.78126V2.40576C9.00587 2.07823 8.7394 1.81176 8.41188 1.81176H2.03637Z" fill="#191919" stroke="#191919" stroke-width="0.5"/>
<path d="M19.5393 10.1672H13.1638C12.3996 10.1672 11.7778 9.54549 11.7778 8.78126V2.40576C11.7778 1.64153 12.3996 1.01978 13.1638 1.01978H19.5393C20.3035 1.01978 20.9253 1.64153 20.9253 2.40576V8.78126C20.9253 9.54549 20.3035 10.1672 19.5393 10.1672ZM13.1638 1.81176C12.8363 1.81176 12.5698 2.07823 12.5698 2.40576V8.78126C12.5698 9.10879 12.8363 9.37525 13.1638 9.37525H19.5393C19.8668 9.37525 20.1333 9.10879 20.1333 8.78126V2.40576C20.1333 2.07823 19.8668 1.81176 19.5393 1.81176H13.1638Z" fill="#191919" stroke="#191919" stroke-width="0.5"/>
<path d="M8.41188 21.2947H2.03637C1.27214 21.2947 0.650391 20.6729 0.650391 19.9087V13.5332C0.650391 12.769 1.27214 12.1472 2.03637 12.1472H8.41188C9.17611 12.1472 9.79786 12.769 9.79786 13.5332V19.9087C9.79786 20.6729 9.17611 21.2947 8.41188 21.2947ZM2.03637 12.9392C1.70884 12.9392 1.44238 13.2057 1.44238 13.5332V19.9087C1.44238 20.2362 1.70884 20.5027 2.03637 20.5027H8.41188C8.7394 20.5027 9.00587 20.2362 9.00587 19.9087V13.5332C9.00587 13.2057 8.7394 12.9392 8.41188 12.9392H2.03637Z" fill="#191919" stroke="#191919" stroke-width="0.5"/>
<path d="M16.3516 21.2947C13.8296 21.2947 11.7778 19.2429 11.7778 16.7209C11.7778 14.199 13.8296 12.1472 16.3516 12.1472C18.8735 12.1472 20.9253 14.199 20.9253 16.7209C20.9253 19.2429 18.8735 21.2947 16.3516 21.2947ZM16.3516 12.9392C14.2663 12.9392 12.5698 14.6357 12.5698 16.7209C12.5698 18.8062 14.2663 20.5027 16.3516 20.5027C18.4368 20.5027 20.1333 18.8062 20.1333 16.7209C20.1333 14.6357 18.4368 12.9392 16.3516 12.9392Z" fill="#191919" stroke="#191919" stroke-width="0.5"/>
</svg>
