<svg width="24" height="24" viewBox="0 0 24 24" fill="none" xmlns="http://www.w3.org/2000/svg">
<g clip-path="url(#clip0_1603_92)">
<path d="M7.52096 18.1738C7.05713 18.1738 6.60371 18.3113 6.21805 18.569C5.83239 18.8267 5.5318 19.193 5.3543 19.6215C5.1768 20.05 5.13035 20.5216 5.22084 20.9765C5.31133 21.4314 5.53469 21.8493 5.86267 22.1773C6.19065 22.5052 6.60852 22.7286 7.06344 22.8191C7.51836 22.9096 7.9899 22.8631 8.41842 22.6856C8.84695 22.5081 9.21322 22.2075 9.47091 21.8219C9.7286 21.4362 9.86614 20.9828 9.86614 20.519C9.86549 19.8972 9.6182 19.3011 9.17853 18.8614C8.73887 18.4217 8.14274 18.1744 7.52096 18.1738ZM7.52096 21.8551C7.25663 21.8551 6.99823 21.7767 6.77844 21.6298C6.55866 21.483 6.38735 21.2742 6.2862 21.03C6.18504 20.7858 6.15857 20.5171 6.21014 20.2578C6.26171 19.9986 6.389 19.7604 6.57591 19.5735C6.76283 19.3866 7.00097 19.2593 7.26022 19.2077C7.51948 19.1562 7.7882 19.1826 8.03242 19.2838C8.27663 19.385 8.48536 19.5563 8.63222 19.776C8.77908 19.9958 8.85746 20.2542 8.85746 20.5186C8.85712 20.8729 8.71619 21.2127 8.46563 21.4632C8.21506 21.7138 7.87532 21.8547 7.52096 21.8551Z" fill="#007C36" stroke="#007C36" stroke-width="0.5"/>
<path d="M17.5131 18.1738C17.0493 18.1738 16.5959 18.3113 16.2102 18.569C15.8246 18.8267 15.524 19.193 15.3465 19.6215C15.169 20.05 15.1225 20.5216 15.213 20.9765C15.3035 21.4314 15.5269 21.8493 15.8549 22.1773C16.1828 22.5052 16.6007 22.7286 17.0556 22.8191C17.5105 22.9096 17.9821 22.8631 18.4106 22.6856C18.8391 22.5081 19.2054 22.2075 19.4631 21.8219C19.7208 21.4362 19.8583 20.9828 19.8583 20.519C19.8577 19.8972 19.6104 19.3011 19.1707 18.8614C18.7311 18.4217 18.1349 18.1744 17.5131 18.1738ZM17.5131 21.8551C17.2488 21.8551 16.9904 21.7767 16.7706 21.6298C16.5508 21.483 16.3795 21.2742 16.2784 21.03C16.1772 20.7858 16.1508 20.5171 16.2023 20.2578C16.2539 19.9986 16.3812 19.7604 16.5681 19.5735C16.755 19.3866 16.9932 19.2593 17.2524 19.2077C17.5117 19.1562 17.7804 19.1826 18.0246 19.2838C18.2688 19.385 18.4776 19.5563 18.6244 19.776C18.7713 19.9958 18.8496 20.2542 18.8496 20.5186C18.8493 20.8729 18.7084 21.2127 18.4578 21.4632C18.2072 21.7138 17.8675 21.8547 17.5131 21.8551Z" fill="#007C36" stroke="#007C36" stroke-width="0.5"/>
<path d="M22.4376 4.18521L5.28598 3.92618L4.81548 2.50036C4.66118 2.03125 4.36285 1.62274 3.96295 1.33299C3.56305 1.04323 3.08195 0.886982 2.58811 0.886475H0.815863C0.682104 0.886475 0.553823 0.93961 0.459241 1.03419C0.364659 1.12878 0.311523 1.25706 0.311523 1.39082C0.311523 1.52457 0.364659 1.65286 0.459241 1.74744C0.553823 1.84202 0.682104 1.89515 0.815863 1.89515H2.58811C2.86986 1.89593 3.1442 1.98547 3.37217 2.15106C3.60013 2.31664 3.77012 2.54984 3.85799 2.81754L4.45215 4.61355L7.19369 12.8988L6.94656 13.4972C6.79985 13.8526 6.74321 14.2388 6.78165 14.6214C6.8201 15.004 6.95245 15.3712 7.16694 15.6903C7.38144 16.0095 7.67144 16.2707 8.01118 16.4508C8.35093 16.6309 8.72989 16.7243 9.11442 16.7227H19.3535C19.4872 16.7227 19.6155 16.6696 19.7101 16.575C19.8047 16.4804 19.8578 16.3521 19.8578 16.2184C19.8578 16.0846 19.8047 15.9563 19.7101 15.8617C19.6155 15.7672 19.4872 15.714 19.3535 15.714H9.11442C8.8954 15.7155 8.67941 15.6628 8.48572 15.5606C8.29203 15.4583 8.12666 15.3097 8.00436 15.128C7.88206 14.9463 7.80663 14.7372 7.78481 14.5192C7.76299 14.3013 7.79544 14.0814 7.87929 13.879L8.07316 13.4114L19.1552 12.2766C19.7471 12.2157 20.3056 11.9725 20.7535 11.5806C21.2013 11.1888 21.5166 10.6676 21.6557 10.089L22.9205 4.80671C22.938 4.73322 22.9388 4.65673 22.9229 4.58289C22.9069 4.50904 22.8746 4.43973 22.8282 4.38007C22.7818 4.32041 22.7227 4.27192 22.6551 4.23819C22.5875 4.20447 22.5132 4.18636 22.4376 4.18521ZM20.6747 9.85474C20.5844 10.2301 20.3799 10.5682 20.0893 10.8225C19.7987 11.0767 19.4363 11.2345 19.0523 11.2741L8.0897 12.3975L5.62166 4.94005L21.7929 5.18431L20.6747 9.85474Z" fill="#007C36" stroke="#007C36" stroke-width="0.5"/>
</g>
<defs>
<clipPath id="clip0_1603_92">
<rect width="24" height="24" fill="white"/>
</clipPath>
</defs>
</svg>
