<svg width="21" height="21" viewBox="0 0 21 21" fill="none" xmlns="http://www.w3.org/2000/svg">
<g clip-path="url(#clip0_1603_101)">
<path d="M7.90929 15.9336C7.64118 15.9336 7.42383 16.1509 7.42383 16.419C7.42383 16.6871 7.64118 16.9045 7.90929 16.9045H12.7639C13.032 16.9045 13.2494 16.6871 13.2494 16.419C13.2494 16.1509 13.032 15.9336 12.7639 15.9336H7.90929Z" fill="#007C36" stroke="#007C36"/>
<path fill-rule="evenodd" clip-rule="evenodd" d="M12.442 1.44269C11.2074 0.467996 9.46513 0.467996 8.23053 1.44269L1.91949 6.42509C1.1032 7.06954 0.626953 8.05229 0.626953 9.09231V16.9046C0.626953 18.7814 2.1484 20.3029 4.0252 20.3029H16.6473C18.5241 20.3029 20.0455 18.7814 20.0455 16.9046V9.09231C20.0455 8.05229 19.5693 7.06954 18.753 6.42509L12.442 1.44269ZM8.83218 2.20475C9.71407 1.50854 10.9584 1.50854 11.8403 2.20475L18.1513 7.18715C18.7344 7.64747 19.0746 8.34944 19.0746 9.09231V16.9046C19.0746 18.2452 17.9878 19.3319 16.6473 19.3319H4.0252C2.68463 19.3319 1.59788 18.2452 1.59788 16.9046V9.09231C1.59788 8.34944 1.93806 7.64747 2.52113 7.18715L8.83218 2.20475Z" fill="#007C36" stroke="#007C36"/>
</g>
<defs>
<clipPath id="clip0_1603_101">
<rect width="21" height="21" fill="white"/>
</clipPath>
</defs>
</svg>
