<svg width="20" height="21" viewBox="0 0 20 21" fill="none" xmlns="http://www.w3.org/2000/svg">
<path d="M7.59289 16.2155C7.32477 16.2155 7.10742 16.4329 7.10742 16.701C7.10742 16.9691 7.32477 17.1864 7.59289 17.1864H12.4475C12.7156 17.1864 12.933 16.9691 12.933 16.701C12.933 16.4329 12.7156 16.2155 12.4475 16.2155H7.59289Z" fill="#191919" stroke="#191919"/>
<path fill-rule="evenodd" clip-rule="evenodd" d="M12.1261 1.72455C10.8914 0.749856 9.14921 0.749856 7.91461 1.72455L1.60357 6.70695C0.787285 7.3514 0.311035 8.33415 0.311035 9.37417V17.1865C0.311035 19.0633 1.83248 20.5847 3.70929 20.5847H16.3314C18.2082 20.5847 19.7296 19.0633 19.7296 17.1865V9.37417C19.7296 8.33415 19.2534 7.3514 18.4371 6.70695L12.1261 1.72455ZM8.51626 2.48661C9.39815 1.7904 10.6425 1.7904 11.5244 2.48661L17.8354 7.46901C18.4185 7.92933 18.7587 8.6313 18.7587 9.37417V17.1865C18.7587 18.527 17.6719 19.6138 16.3314 19.6138H3.70929C2.36872 19.6138 1.28196 18.527 1.28196 17.1865V9.37417C1.28196 8.6313 1.62214 7.92933 2.20521 7.46901L8.51626 2.48661Z" fill="#191919" stroke="#191919" stroke-width="0.5"/>
</svg>
