<svg width="20" height="22" viewBox="0 0 20 22" fill="none" xmlns="http://www.w3.org/2000/svg">
<path d="M10.3216 11.0813C9.33028 11.0813 8.36126 10.7874 7.53705 10.2367C6.71283 9.68594 6.07043 8.90318 5.69109 7.98736C5.31174 7.07154 5.21249 6.0638 5.40588 5.09157C5.59926 4.11934 6.07661 3.22629 6.77755 2.52535C7.47849 1.82441 8.37153 1.34707 9.34376 1.15368C10.316 0.960291 11.3237 1.05954 12.2396 1.43889C13.1554 1.81823 13.9381 2.46063 14.4889 3.28485C15.0396 4.10906 15.3335 5.07808 15.3335 6.06936C15.3321 7.39816 14.8035 8.67212 13.8639 9.61173C12.9243 10.5513 11.6504 11.0799 10.3216 11.0813ZM10.3216 2.44959C9.60563 2.44959 8.90579 2.66189 8.31052 3.05963C7.71525 3.45738 7.2513 4.02271 6.97733 4.68413C6.70336 5.34556 6.63167 6.07337 6.77134 6.77554C6.91101 7.4777 7.25576 8.12268 7.76199 8.62891C8.26823 9.13515 8.91321 9.4799 9.61537 9.61957C10.3175 9.75924 11.0454 9.68755 11.7068 9.41358C12.3682 9.13961 12.9335 8.67566 13.3313 8.08039C13.729 7.48512 13.9413 6.78528 13.9413 6.06936C13.9402 5.10967 13.5585 4.18962 12.8799 3.51102C12.2013 2.83242 11.2812 2.4507 10.3216 2.44959Z" fill="#191919" stroke="#191919" stroke-width="0.52"/>
<path d="M19.0231 21.257C18.8385 21.257 18.6615 21.1837 18.5309 21.0531C18.4004 20.9226 18.327 20.7455 18.327 20.5609V18.8401C18.3255 17.5184 17.7998 16.2511 16.8652 15.3165C15.9305 14.3818 14.6633 13.8561 13.3415 13.8546H7.30206C5.98027 13.8561 4.71304 14.3818 3.77839 15.3165C2.84374 16.2511 2.31801 17.5184 2.31653 18.8401V20.5609C2.31653 20.7455 2.24319 20.9226 2.11265 21.0531C1.9821 21.1837 1.80504 21.257 1.62042 21.257C1.43581 21.257 1.25875 21.1837 1.1282 21.0531C0.997656 20.9226 0.924316 20.7455 0.924316 20.5609V18.8401C0.926343 17.1493 1.59893 15.5283 2.79455 14.3326C3.99017 13.137 5.6112 12.4644 7.30206 12.4624H13.3408C15.0318 12.4642 16.653 13.1368 17.8488 14.3324C19.0445 15.528 19.7172 17.1492 19.7192 18.8401V20.5609C19.7192 20.7455 19.6459 20.9226 19.5154 21.0531C19.3848 21.1837 19.2077 21.257 19.0231 21.257Z" fill="#191919" stroke="#191919" stroke-width="0.52"/>
</svg>
