<svg width="21" height="22" viewBox="0 0 21 22" fill="none" xmlns="http://www.w3.org/2000/svg">
<g clip-path="url(#clip0_1603_104)">
<path d="M10.6282 10.7327C9.63692 10.7327 8.6679 10.4388 7.84369 9.88803C7.01947 9.33731 6.37707 8.55454 5.99773 7.63872C5.61838 6.72291 5.51913 5.71516 5.71252 4.74293C5.90591 3.7707 6.38325 2.87766 7.08419 2.17672C7.78513 1.47578 8.67818 0.998435 9.6504 0.805046C10.6226 0.611658 11.6304 0.710912 12.5462 1.09026C13.462 1.4696 14.2448 2.112 14.7955 2.93622C15.3462 3.76043 15.6402 4.72945 15.6402 5.72072C15.6387 7.04953 15.1102 8.32349 14.1706 9.2631C13.231 10.2027 11.957 10.7312 10.6282 10.7327ZM10.6282 2.10096C9.91227 2.10096 9.21243 2.31325 8.61716 2.711C8.02189 3.10874 7.55794 3.67407 7.28397 4.3355C7.01 4.99692 6.93831 5.72474 7.07798 6.4269C7.21765 7.12907 7.5624 7.77405 8.06863 8.28028C8.57487 8.78652 9.21985 9.13126 9.92201 9.27093C10.6242 9.4106 11.352 9.33892 12.0134 9.06495C12.6748 8.79098 13.2402 8.32702 13.6379 7.73176C14.0357 7.13649 14.248 6.43664 14.248 5.72072C14.2469 4.76104 13.8651 3.84098 13.1865 3.16238C12.5079 2.48379 11.5879 2.10206 10.6282 2.10096Z" fill="#007C36" stroke="#007C36" stroke-width="0.52"/>
<path d="M19.3293 20.9084C19.1447 20.9084 18.9676 20.8351 18.8371 20.7045C18.7065 20.574 18.6332 20.3969 18.6332 20.2123V18.4915C18.6317 17.1697 18.106 15.9025 17.1713 14.9678C16.2367 14.0332 14.9694 13.5075 13.6476 13.506H7.60821C6.28642 13.5075 5.01919 14.0332 4.08454 14.9678C3.14989 15.9025 2.62416 17.1697 2.62269 18.4915V20.2123C2.62269 20.3969 2.54935 20.574 2.4188 20.7045C2.28825 20.8351 2.1112 20.9084 1.92658 20.9084C1.74196 20.9084 1.5649 20.8351 1.43435 20.7045C1.30381 20.574 1.23047 20.3969 1.23047 20.2123V18.4915C1.2325 16.8007 1.90508 15.1796 3.1007 13.984C4.29632 12.7884 5.91735 12.1158 7.60821 12.1138H13.6469C15.3379 12.1156 16.9591 12.7881 18.1549 13.9838C19.3507 15.1794 20.0234 16.8005 20.0254 18.4915V20.2123C20.0254 20.3969 19.9521 20.574 19.8215 20.7045C19.691 20.8351 19.5139 20.9084 19.3293 20.9084Z" fill="#007C36" stroke="#007C36" stroke-width="0.52"/>
</g>
<defs>
<clipPath id="clip0_1603_104">
<rect width="21" height="22" fill="white"/>
</clipPath>
</defs>
</svg>
