<svg width="26" height="26" viewBox="0 0 26 26" fill="none" xmlns="http://www.w3.org/2000/svg">
<g clip-path="url(#clip0_159_4006)">
<g clip-path="url(#clip1_159_4006)">
<path d="M20.2701 3.49077C18.3282 1.47114 15.7462 0.358887 12.9999 0.358887C10.2536 0.358887 7.67159 1.47114 5.72969 3.49077C3.78773 5.51045 2.71826 8.19565 2.71826 11.0517C2.71826 16.8296 7.97128 21.6354 10.7934 24.2172C11.1856 24.576 11.5243 24.8858 11.7941 25.1479C12.1321 25.4763 12.566 25.6406 12.9999 25.6406C13.4338 25.6406 13.8676 25.4763 14.2057 25.1479C14.4755 24.8858 14.8142 24.576 15.2064 24.2172C18.0285 21.6353 23.2815 16.8296 23.2815 11.0517C23.2815 8.19565 22.212 5.51045 20.2701 3.49077ZM14.2658 23.1053C13.865 23.4719 13.519 23.7886 13.2336 24.0657C13.1025 24.193 12.8972 24.193 12.7661 24.0657C12.4808 23.7885 12.1346 23.4719 11.7339 23.1052C9.08073 20.678 4.14217 16.16 4.14217 11.0518C4.14217 5.97233 8.11566 1.8399 12.9998 1.8399C17.8839 1.8399 21.8574 5.97233 21.8574 11.0518C21.8575 16.16 16.9189 20.678 14.2658 23.1053Z" fill="#E2B2B2"/>
<path d="M13.0002 5.93555C10.5018 5.93555 8.46924 8.04939 8.46924 10.6477C8.46924 13.2461 10.5018 15.3599 13.0002 15.3599C15.4986 15.3599 17.5312 13.2461 17.5312 10.6477C17.5312 8.04939 15.4986 5.93555 13.0002 5.93555ZM13.0002 13.8789C11.287 13.8789 9.89324 12.4294 9.89324 10.6477C9.89324 8.86601 11.287 7.41646 13.0002 7.41646C14.7134 7.41646 16.1072 8.86601 16.1072 10.6477C16.1072 12.4294 14.7134 13.8789 13.0002 13.8789Z" fill="#E2B2B2"/>
</g>
</g>
<defs>
<clipPath id="clip0_159_4006">
<rect width="26" height="26" fill="white"/>
</clipPath>
<clipPath id="clip1_159_4006">
<rect width="24.3094" height="25.2817" fill="white" transform="translate(0.845215 0.358887)"/>
</clipPath>
</defs>
</svg>
