<svg width="24" height="23" viewBox="0 0 24 23" fill="none" xmlns="http://www.w3.org/2000/svg">
<path d="M7.89792 17.9048C7.43408 17.9048 6.98067 18.0423 6.595 18.3C6.20934 18.5577 5.90875 18.924 5.73125 19.3525C5.55375 19.781 5.50731 20.2526 5.5978 20.7075C5.68829 21.1624 5.91164 21.5803 6.23962 21.9083C6.5676 22.2362 6.98547 22.4596 7.44039 22.5501C7.89531 22.6406 8.36685 22.5941 8.79538 22.4166C9.2239 22.2391 9.59017 21.9385 9.84786 21.5529C10.1056 21.1672 10.2431 20.7138 10.2431 20.25C10.2424 19.6282 9.99515 19.0321 9.55548 18.5924C9.11582 18.1527 8.51969 17.9054 7.89792 17.9048ZM7.89792 21.5861C7.63358 21.5861 7.37518 21.5077 7.15539 21.3608C6.93561 21.214 6.76431 21.0052 6.66315 20.761C6.56199 20.5168 6.53553 20.2481 6.5871 19.9888C6.63866 19.7296 6.76595 19.4914 6.95287 19.3045C7.13978 19.1176 7.37792 18.9903 7.63718 18.9387C7.89643 18.8872 8.16516 18.9136 8.40937 19.0148C8.65358 19.116 8.86232 19.2873 9.00917 19.507C9.15603 19.7268 9.23442 19.9852 9.23442 20.2496C9.23407 20.6039 9.09315 20.9437 8.84258 21.1942C8.59201 21.4448 8.25227 21.5857 7.89792 21.5861Z" fill="white" stroke="white" stroke-width="0.5"/>
<path d="M17.8901 17.9048C17.4263 17.9048 16.9729 18.0423 16.5872 18.3C16.2015 18.5577 15.9009 18.924 15.7234 19.3525C15.5459 19.781 15.4995 20.2526 15.59 20.7075C15.6805 21.1624 15.9038 21.5803 16.2318 21.9083C16.5598 22.2362 16.9777 22.4596 17.4326 22.5501C17.8875 22.6406 18.359 22.5941 18.7876 22.4166C19.2161 22.2391 19.5824 21.9385 19.84 21.5529C20.0977 21.1672 20.2353 20.7138 20.2353 20.25C20.2346 19.6282 19.9873 19.0321 19.5477 18.5924C19.108 18.1527 18.5119 17.9054 17.8901 17.9048ZM17.8901 21.5861C17.6258 21.5861 17.3674 21.5077 17.1476 21.3608C16.9278 21.214 16.7565 21.0052 16.6553 20.761C16.5542 20.5168 16.5277 20.2481 16.5793 19.9888C16.6309 19.7296 16.7581 19.4914 16.9451 19.3045C17.132 19.1176 17.3701 18.9903 17.6294 18.9387C17.8886 18.8872 18.1573 18.9136 18.4016 19.0148C18.6458 19.116 18.8545 19.2873 19.0014 19.507C19.1482 19.7268 19.2266 19.9852 19.2266 20.2496C19.2263 20.6039 19.0853 20.9437 18.8348 21.1942C18.5842 21.4448 18.2445 21.5857 17.8901 21.5861Z" fill="white" stroke="white" stroke-width="0.5"/>
<path d="M22.8146 3.91641L5.66293 3.65738L5.19243 2.23156C5.03813 1.76245 4.73981 1.35395 4.33991 1.06419C3.94001 0.774433 3.45891 0.618184 2.96507 0.617676H1.19282C1.05906 0.617676 0.930776 0.670811 0.836194 0.765393C0.741612 0.859975 0.688477 0.988256 0.688477 1.12202C0.688477 1.25577 0.741612 1.38406 0.836194 1.47864C0.930776 1.57322 1.05906 1.62635 1.19282 1.62635H2.96507C3.24682 1.62713 3.52116 1.71667 3.74912 1.88226C3.97708 2.04784 4.14707 2.28104 4.23494 2.54874L4.8291 4.34474L7.57064 12.63L7.32352 13.2284C7.17681 13.5839 7.12016 13.97 7.1586 14.3526C7.19705 14.7352 7.3294 15.1024 7.54389 15.4216C7.75839 15.7407 8.04839 16.0019 8.38814 16.182C8.72788 16.3621 9.10685 16.4555 9.49137 16.4539H19.7304C19.8642 16.4539 19.9925 16.4008 20.087 16.3062C20.1816 16.2116 20.2348 16.0834 20.2348 15.9496C20.2348 15.8158 20.1816 15.6876 20.087 15.593C19.9925 15.4984 19.8642 15.4453 19.7304 15.4453H9.49137C9.27235 15.4468 9.05636 15.3941 8.86267 15.2918C8.66898 15.1896 8.50361 15.041 8.38131 14.8593C8.25901 14.6776 8.18358 14.4684 8.16176 14.2505C8.13994 14.0326 8.1724 13.8126 8.25624 13.6103L8.45011 13.1426L19.5321 12.0079C20.1241 11.9469 20.6825 11.7037 21.1304 11.3119C21.5783 10.92 21.8935 10.3989 22.0326 9.82026L23.2974 4.53791C23.315 4.46442 23.3158 4.38793 23.2998 4.31409C23.2839 4.24024 23.2515 4.17093 23.2052 4.11127C23.1588 4.05161 23.0996 4.00312 23.032 3.96939C22.9644 3.93567 22.8901 3.91756 22.8146 3.91641ZM21.0516 9.58594C20.9614 9.96135 20.7568 10.2995 20.4662 10.5537C20.1756 10.808 19.8133 10.9658 19.4292 11.0054L8.46665 12.1287L5.99862 4.67125L22.1698 4.91551L21.0516 9.58594Z" fill="white" stroke="white" stroke-width="0.5"/>
</svg>
