<svg width="22" height="25" viewBox="0 0 22 25" fill="none" xmlns="http://www.w3.org/2000/svg">
<path d="M21.2742 23.8587C21.4447 23.6695 21.5267 23.417 21.5002 23.1641L21.5002 23.164L19.7355 6.35951L19.7355 6.35947C19.6875 5.90245 19.3022 5.55534 18.8425 5.55534H15.7327V5.006C15.7327 2.53458 13.7222 0.524096 11.2508 0.524096C8.77917 0.524096 6.76868 2.53457 6.76868 5.006V5.55534H3.65882C3.19914 5.55534 2.81389 5.90245 2.7658 6.35947L2.76579 6.35951L1.00115 23.164L1.00114 23.1641C0.974664 23.4171 1.05685 23.6695 1.22682 23.8585L1.22699 23.8587C1.39729 24.0477 1.63983 24.1556 1.89417 24.1556H20.607C20.8614 24.1556 21.104 24.0477 21.2742 23.8587ZM21.2742 23.8587L21.1205 23.7202M21.2742 23.8587C21.2742 23.8587 21.2742 23.8587 21.2743 23.8586L21.1205 23.7202M21.1205 23.7202C20.9896 23.8657 20.8029 23.9487 20.607 23.9487H1.89417C1.69843 23.9487 1.51173 23.8657 1.38065 23.7202M21.1205 23.7202C21.2518 23.5746 21.3148 23.3803 21.2945 23.1856L1.38065 23.7202M1.38065 23.7202C1.24974 23.5746 1.18651 23.3803 1.20688 23.1856L1.38065 23.7202ZM8.56443 5.006C8.56443 3.52513 9.7697 2.31985 11.2508 2.31985C12.7316 2.31985 13.9369 3.52512 13.9369 5.006V5.55534H8.56443V5.006ZM18.034 7.35109L19.6101 22.3598H2.89125L4.46738 7.35109H6.76868V8.66708C6.76868 9.16288 7.17075 9.56495 7.66656 9.56495C8.16236 9.56495 8.56443 9.16288 8.56443 8.66708V7.35109H13.9369V8.66708C13.9369 9.16288 14.339 9.56495 14.8348 9.56495C15.3306 9.56495 15.7327 9.16288 15.7327 8.66708V7.35109H18.034Z" fill="white" stroke="white" stroke-width="0.413723" stroke-linejoin="round"/>
</svg>
