<svg width="29" height="31" viewBox="0 0 29 31" fill="none" xmlns="http://www.w3.org/2000/svg">
<path fill-rule="evenodd" clip-rule="evenodd" d="M14.2271 17.0425C14.7103 17.0425 15.1021 17.4454 15.1021 17.9425V20.3425C15.1021 20.8395 14.7103 21.2425 14.2271 21.2425C13.7438 21.2425 13.3521 20.8395 13.3521 20.3425V17.9425C13.3521 17.4454 13.7438 17.0425 14.2271 17.0425Z" fill="#E2B2B2"/>
<path fill-rule="evenodd" clip-rule="evenodd" d="M14.2269 12.2424C12.391 12.2424 10.7256 12.2828 9.08667 12.3603C7.5595 12.4326 6.28106 13.6607 6.07317 15.2487C5.90357 16.5445 5.76855 17.8379 5.76855 19.1424C5.76855 20.4469 5.90357 21.7403 6.07317 23.036C6.28106 24.6241 7.5595 25.8522 9.08667 25.9244C10.7256 26.0019 12.391 26.0424 14.2269 26.0424C16.0628 26.0424 17.7282 26.0019 19.3671 25.9244C20.8943 25.8522 22.1727 24.6241 22.3806 23.036C22.5502 21.7403 22.6852 20.4469 22.6852 19.1424C22.6852 17.8379 22.5502 16.5445 22.3806 15.2487C22.1727 13.6607 20.8943 12.4326 19.3671 12.3603C17.7282 12.2828 16.0628 12.2424 14.2269 12.2424ZM9.00631 10.5622C10.6728 10.4834 12.3651 10.4424 14.2269 10.4424C16.0887 10.4424 17.781 10.4834 19.4475 10.5622C21.8485 10.6758 23.7981 12.5882 24.115 15.0086C24.2878 16.3291 24.4352 17.7165 24.4352 19.1424C24.4352 20.5682 24.2878 21.9557 24.115 23.2761C23.7981 25.6965 21.8485 27.609 19.4475 27.7225C17.781 27.8013 16.0887 27.8424 14.2269 27.8424C12.3651 27.8424 10.6728 27.8013 9.00631 27.7225C6.60524 27.609 4.65566 25.6965 4.33883 23.2761C4.16597 21.9557 4.01855 20.5682 4.01855 19.1424C4.01855 17.7165 4.16597 16.3291 4.33883 15.0086C4.65566 12.5882 6.60524 10.6758 9.00631 10.5622Z" fill="#E2B2B2"/>
<path fill-rule="evenodd" clip-rule="evenodd" d="M14.227 3.84248C11.8108 3.84248 9.85205 5.8572 9.85205 8.34248V11.3425C9.85205 11.8395 9.4603 12.2425 8.97705 12.2425C8.49379 12.2425 8.10205 11.8395 8.10205 11.3425V8.34248C8.10205 4.86308 10.8443 2.04248 14.227 2.04248C17.6098 2.04248 20.352 4.86308 20.352 8.34248V11.3425C20.352 11.8395 19.9603 12.2425 19.477 12.2425C18.9938 12.2425 18.602 11.8395 18.602 11.3425V8.34248C18.602 5.8572 16.6433 3.84248 14.227 3.84248Z" fill="#E2B2B2"/>
</svg>
