<svg width="17" height="18" viewBox="0 0 17 18" fill="none" xmlns="http://www.w3.org/2000/svg">
<g clip-path="url(#clip0_1603_107)">
<path d="M7.55418 7.16749L6.75238 9.57373C6.7056 9.72128 6.70027 9.87885 6.73698 10.0292C6.77368 10.1796 6.851 10.317 6.9605 10.4264C7.06999 10.5358 7.20745 10.613 7.35786 10.6496C7.50826 10.6862 7.66583 10.6807 7.81334 10.6338L10.2196 9.83205C10.3427 9.79072 10.4546 9.72155 10.5467 9.62992L16.1962 3.98042C16.5659 3.61024 16.7736 3.10843 16.7736 2.58524C16.7736 2.06204 16.5659 1.56024 16.1962 1.19006C15.8258 0.820996 15.3243 0.61377 14.8014 0.61377C14.2786 0.61377 13.777 0.820996 13.4066 1.19006L7.75715 6.84039C7.66505 6.93222 7.59556 7.0442 7.55418 7.16749Z" fill="#007C36"/>
<path d="M15.9353 6.48371C15.7129 6.48371 15.4996 6.57207 15.3423 6.72936C15.185 6.88665 15.0966 7.09997 15.0966 7.32241V13.1933C15.0966 13.8606 14.8316 14.5006 14.3597 14.9725C13.8878 15.4443 13.2478 15.7094 12.5805 15.7094H4.19351C3.5262 15.7094 2.88622 15.4443 2.41436 14.9725C1.94249 14.5006 1.6774 13.8606 1.6774 13.1933V4.8063C1.6774 4.13899 1.94249 3.49901 2.41436 3.02715C2.88622 2.55529 3.5262 2.2902 4.19351 2.2902H10.0644C10.2869 2.2902 10.5002 2.20183 10.6575 2.04455C10.8148 1.88726 10.9031 1.67393 10.9031 1.4515C10.9031 1.22906 10.8148 1.01573 10.6575 0.858443C10.5002 0.701156 10.2869 0.612793 10.0644 0.612793H4.19351C3.08173 0.614125 2.01587 1.05637 1.22972 1.84252C0.443575 2.62866 0.00133174 3.69453 0 4.8063V13.1933C0.00133174 14.3051 0.443575 15.371 1.22972 16.1571C2.01587 16.9433 3.08173 17.3855 4.19351 17.3868H12.5805C13.6923 17.3855 14.7582 16.9433 15.5443 16.1571C16.3305 15.371 16.7727 14.3051 16.774 13.1933V7.32241C16.774 7.09997 16.6857 6.88665 16.5284 6.72936C16.3711 6.57207 16.1578 6.48371 15.9353 6.48371Z" fill="#007C36"/>
</g>
<defs>
<clipPath id="clip0_1603_107">
<rect width="17" height="18" fill="white"/>
</clipPath>
</defs>
</svg>
