<svg width="30" height="35" viewBox="0 0 30 35" fill="none" xmlns="http://www.w3.org/2000/svg">
<g clip-path="url(#clip0_511_207)">
<path d="M22.3991 34.2712C21.7726 34.106 21.1827 33.8804 20.6699 33.4435C19.044 32.0598 19.282 29.2284 21.1285 28.1734C23.1342 27.0259 25.4393 28.0419 25.9853 30.3137C26.3441 31.8111 25.364 33.5873 23.9131 34.0634C23.6908 34.1362 23.465 34.2019 23.2393 34.2712C22.9592 34.2712 22.6792 34.2712 22.3991 34.2712ZM21.6693 30.9656C21.6641 31.6157 22.1699 32.1361 22.8087 32.1379C23.43 32.1397 23.9411 31.6299 23.9533 31.0029C23.9638 30.3563 23.4615 29.8235 22.8297 29.8128C22.1961 29.8022 21.6746 30.3226 21.6693 30.9656Z" fill="white"/>
<path d="M11.5393 34.2712C10.9757 34.0953 10.4104 33.9301 9.94834 33.5269C9.00672 32.7045 8.57967 31.6654 8.79669 30.4309C9.02422 29.1361 9.78557 28.2444 11.0422 27.8447C13.3525 27.1094 15.647 29.1858 15.1605 31.5873C14.8752 32.9958 13.9878 33.8538 12.6192 34.2055C12.5597 34.2214 12.5037 34.2481 12.4459 34.2712C12.1414 34.2712 11.8403 34.2712 11.5393 34.2712ZM11.9943 32.1379C12.6279 32.1308 13.1442 31.5944 13.1302 30.9567C13.1162 30.3155 12.5859 29.7986 11.9558 29.8146C11.3398 29.8306 10.8339 30.3563 10.8357 30.9798C10.8357 31.6157 11.3643 32.145 11.9943 32.1379Z" fill="white"/>
<path d="M7.35249 12.2316C7.51526 12.2316 7.65528 12.2316 7.79355 12.2316C14.5476 12.2316 21.3017 12.2316 28.0558 12.2316C28.7681 12.2316 29.2145 12.5655 29.2792 13.1748C29.2985 13.3631 29.2617 13.5673 29.2144 13.7538C28.1731 17.8427 27.1247 21.9281 26.0781 26.0152C25.8925 26.7417 25.5512 27.017 24.8127 27.017C19.8683 27.0188 14.9239 27.0188 9.97957 27.017C9.23048 27.017 8.89969 26.7435 8.70541 25.985C7.38575 20.8321 6.06258 15.6793 4.75167 10.5229C4.67816 10.2333 4.5819 10.1196 4.26511 10.1267C3.22023 10.1516 2.17535 10.1427 1.13047 10.1303C0.594908 10.1232 0.197609 9.73953 0.1241 9.20311C0.0540914 8.70576 0.36388 8.21374 0.85219 8.06809C0.983456 8.02901 1.12697 8.02013 1.26699 8.02013C2.61291 8.01658 3.96057 8.0148 5.30649 8.01835C5.99083 8.02013 6.33212 8.28834 6.50889 8.96509C6.79067 10.0415 7.06546 11.1197 7.35249 12.2316ZM7.90031 14.3773C8.80167 17.896 9.69778 21.3845 10.5921 24.8784C15.141 24.8784 19.6635 24.8784 24.1983 24.8784C25.0944 21.3792 25.9888 17.8889 26.8884 14.3773C20.5369 14.3773 14.2396 14.3773 7.90031 14.3773Z" fill="white"/>
<path d="M19.2115 6.25811C18.9927 6.25811 18.8772 6.25811 18.7616 6.25811C16.8872 6.25811 15.0144 6.26167 13.14 6.25456C12.3804 6.25278 11.8815 5.64353 12.0461 4.9437C12.1441 4.5245 12.4696 4.21366 12.8932 4.15149C13.0419 4.13018 13.1942 4.12485 13.343 4.12485C15.1299 4.12485 16.9187 4.12663 18.7056 4.12663C18.8299 4.12663 18.9559 4.12663 19.1589 4.12663C19.0382 3.98808 18.9769 3.90815 18.9052 3.83532C18.4729 3.39304 18.0318 2.95964 17.6083 2.50847C17.183 2.05376 17.1812 1.42674 17.5855 1.00755C18.0003 0.577701 18.6356 0.565268 19.0872 1.01643C20.2161 2.14257 21.3345 3.27936 22.4459 4.42326C22.9027 4.89574 22.8974 5.49611 22.4371 5.97214C21.3327 7.10893 20.2213 8.23684 19.1012 9.35587C18.6531 9.80349 18.0091 9.79993 17.596 9.37896C17.1777 8.95444 17.1812 8.31677 17.624 7.85495C18.1228 7.34162 18.6339 6.84072 19.2115 6.25811Z" fill="white"/>
<path d="M19.1661 21.8766C19.2799 20.7629 19.3989 19.5905 19.5161 18.4182C19.5547 18.0381 19.5932 17.658 19.6299 17.2779C19.6772 16.7788 19.8959 16.3986 20.3843 16.2406C21.0983 16.0114 21.8054 16.5958 21.7319 17.3667C21.5814 18.9422 21.4169 20.516 21.2436 22.0879C21.1754 22.7114 20.7028 23.0986 20.1165 23.0542C19.5617 23.0151 19.1591 22.5391 19.1661 21.8766Z" fill="white"/>
<path d="M15.6147 21.7877C15.6427 22.5178 15.2611 23.0045 14.6853 23.0542C14.0658 23.1075 13.6054 22.6919 13.5337 22.0009C13.3744 20.4716 13.2169 18.9404 13.0664 17.4093C13.0034 16.7734 13.3832 16.2796 13.9817 16.1997C14.5418 16.1251 15.0686 16.5194 15.1386 17.1358C15.3137 18.7095 15.4624 20.2851 15.6147 21.7877Z" fill="white"/>
</g>
<defs>
<clipPath id="clip0_511_207">
<rect width="29.1691" height="33.5887" fill="white" transform="translate(0.115234 0.682495)"/>
</clipPath>
</defs>
</svg>
