<svg width="18" height="19" viewBox="0 0 18 19" fill="none" xmlns="http://www.w3.org/2000/svg">
<path d="M14.25 5.54175C14.0511 5.54175 13.8603 5.62516 13.7197 5.77362C13.579 5.92209 13.5 6.12345 13.5 6.33341V15.193C13.4785 15.5933 13.308 15.9684 13.0256 16.2367C12.7433 16.5049 12.3719 16.6445 11.9925 16.6251H6.0075C5.62807 16.6445 5.25674 16.5049 4.97438 16.2367C4.69202 15.9684 4.52151 15.5933 4.5 15.193V6.33341C4.5 6.12345 4.42098 5.92209 4.28033 5.77362C4.13968 5.62516 3.94891 5.54175 3.75 5.54175C3.55109 5.54175 3.36032 5.62516 3.21967 5.77362C3.07902 5.92209 3 6.12345 3 6.33341V15.193C3.02141 16.0133 3.34994 16.7913 3.91364 17.3565C4.47733 17.9216 5.23025 18.228 6.0075 18.2084H11.9925C12.7697 18.228 13.5227 17.9216 14.0864 17.3565C14.6501 16.7913 14.9786 16.0133 15 15.193V6.33341C15 6.12345 14.921 5.92209 14.7803 5.77362C14.6397 5.62516 14.4489 5.54175 14.25 5.54175Z" fill="#000D26"/>
<path d="M15 3.16675H12V1.58341C12 1.37345 11.921 1.17209 11.7803 1.02362C11.6397 0.875156 11.4489 0.791748 11.25 0.791748H6.75C6.55109 0.791748 6.36032 0.875156 6.21967 1.02362C6.07902 1.17209 6 1.37345 6 1.58341V3.16675H3C2.80109 3.16675 2.61032 3.25016 2.46967 3.39862C2.32902 3.54709 2.25 3.74845 2.25 3.95841C2.25 4.16838 2.32902 4.36974 2.46967 4.51821C2.61032 4.66667 2.80109 4.75008 3 4.75008H15C15.1989 4.75008 15.3897 4.66667 15.5303 4.51821C15.671 4.36974 15.75 4.16838 15.75 3.95841C15.75 3.74845 15.671 3.54709 15.5303 3.39862C15.3897 3.25016 15.1989 3.16675 15 3.16675ZM7.5 3.16675V2.37508H10.5V3.16675H7.5Z" fill="#000D26"/>
<path d="M8.25 13.4583V7.91667C8.25 7.7067 8.17098 7.50534 8.03033 7.35687C7.88968 7.20841 7.69891 7.125 7.5 7.125C7.30109 7.125 7.11032 7.20841 6.96967 7.35687C6.82902 7.50534 6.75 7.7067 6.75 7.91667V13.4583C6.75 13.6683 6.82902 13.8697 6.96967 14.0181C7.11032 14.1666 7.30109 14.25 7.5 14.25C7.69891 14.25 7.88968 14.1666 8.03033 14.0181C8.17098 13.8697 8.25 13.6683 8.25 13.4583Z" fill="#000D26"/>
<path d="M11.25 13.4583V7.91667C11.25 7.7067 11.171 7.50534 11.0303 7.35687C10.8897 7.20841 10.6989 7.125 10.5 7.125C10.3011 7.125 10.1103 7.20841 9.96967 7.35687C9.82902 7.50534 9.75 7.7067 9.75 7.91667V13.4583C9.75 13.6683 9.82902 13.8697 9.96967 14.0181C10.1103 14.1666 10.3011 14.25 10.5 14.25C10.6989 14.25 10.8897 14.1666 11.0303 14.0181C11.171 13.8697 11.25 13.6683 11.25 13.4583Z" fill="#000D26"/>
</svg>
