<svg width="17" height="17" viewBox="0 0 17 17" fill="none" xmlns="http://www.w3.org/2000/svg">
<g clip-path="url(#clip0_2648_18934)">
<path d="M13.4583 8.53268C13.0666 8.53268 12.75 8.85005 12.75 9.24097V14.9077C12.75 15.2979 12.4326 15.616 12.0417 15.616H2.125C1.73396 15.616 1.41671 15.2979 1.41671 14.9077V4.99097C1.41671 4.6007 1.73396 4.28268 2.125 4.28268H7.79171C8.1834 4.28268 8.5 3.9653 8.5 3.57439C8.5 3.18334 8.1834 2.86597 7.79171 2.86597H2.125C0.953423 2.86597 0 3.81939 0 4.99097V14.9077C0 16.0793 0.953423 17.0327 2.125 17.0327H12.0417C13.2133 17.0327 14.1667 16.0793 14.1667 14.9077V9.24097C14.1667 8.84927 13.85 8.53268 13.4583 8.53268Z" fill="#000D26"/>
<path d="M6.6413 7.88744C6.59176 7.93698 6.55842 8.00002 6.54429 8.06798L6.04352 10.5727C6.02017 10.6888 6.057 10.8085 6.14053 10.8928C6.20784 10.9602 6.2985 10.9962 6.39137 10.9962C6.41394 10.9962 6.43741 10.9941 6.46076 10.9892L8.96474 10.4884C9.03413 10.4742 9.09717 10.441 9.14606 10.3913L14.7504 4.78696L12.2464 2.28311L6.6413 7.88744Z" fill="#000D26"/>
<path d="M16.4816 0.551222C15.791 -0.139429 14.6676 -0.139429 13.9776 0.551222L12.9973 1.53149L15.5013 4.03547L16.4816 3.05507C16.8159 2.72149 17.0001 2.27662 17.0001 1.80347C17.0001 1.33033 16.8159 0.885458 16.4816 0.551222Z" fill="#000D26"/>
</g>
<defs>
<clipPath id="clip0_2648_18934">
<rect width="17" height="17" fill="white"/>
</clipPath>
</defs>
</svg>
