<svg width="44" height="44" viewBox="0 0 44 44" fill="none" xmlns="http://www.w3.org/2000/svg">
<g clip-path="url(#clip0_1603_110)">
<path d="M21.6556 0.192871H21.6548C9.76854 0.192871 0.132812 9.8286 0.132812 21.7149C0.132812 33.6011 9.76854 43.2369 21.6548 43.2369H21.6556C33.5419 43.2369 43.1776 33.6011 43.1776 21.7149C43.1776 9.8286 33.5419 0.192871 21.6556 0.192871Z" fill="#007C36"/>
<path d="M17.4195 20.133C18.9154 20.133 20.1281 18.9203 20.1281 17.4244C20.1281 15.9285 18.9154 14.7158 17.4195 14.7158C15.9236 14.7158 14.7109 15.9285 14.7109 17.4244C14.7109 18.9203 15.9236 20.133 17.4195 20.133Z" stroke="white" stroke-width="1.63276"/>
<path d="M10.5391 17.3877H14.0048" stroke="white" stroke-width="1.63276" stroke-linecap="round"/>
<path d="M20.9971 17.3877H33.0324" stroke="white" stroke-width="1.63276" stroke-linecap="round"/>
<path d="M26.1518 29.2839C24.6559 29.2839 23.4432 28.0712 23.4432 26.5753C23.4432 25.0794 24.6559 23.8667 26.1518 23.8667C27.6477 23.8667 28.8604 25.0794 28.8604 26.5753C28.8604 28.0712 27.6477 29.2839 26.1518 29.2839Z" stroke="white" stroke-width="1.63276"/>
<path d="M33.0331 26.5386H29.5674" stroke="white" stroke-width="1.63276" stroke-linecap="round"/>
<path d="M22.5744 26.5386H10.5391" stroke="white" stroke-width="1.63276" stroke-linecap="round"/>
</g>
<defs>
<clipPath id="clip0_1603_110">
<rect width="44" height="44" fill="white"/>
</clipPath>
</defs>
</svg>
