<svg width="46" height="46" viewBox="0 0 46 46" fill="none" xmlns="http://www.w3.org/2000/svg">
<circle cx="23" cy="23" r="23" fill="white"/>
<path fill-rule="evenodd" clip-rule="evenodd" d="M16.6149 12.2834C18.1516 10.7467 20.2196 9.89697 22.3607 9.89697C24.5017 9.89697 26.5697 10.7467 28.1064 12.2834C29.646 13.8229 30.5274 15.93 30.5274 18.147C30.5274 21.2834 31.2611 23.4281 32.0741 24.8534L32.0869 24.8757C32.526 25.6456 32.871 26.2505 33.103 26.6877C33.2192 26.9066 33.3232 27.1135 33.3996 27.2941C33.4376 27.384 33.48 27.4932 33.5131 27.6109C33.5392 27.7041 33.5955 27.9211 33.5739 28.1854C33.5607 28.3476 33.529 28.643 33.37 28.947C33.2108 29.2509 32.9921 29.4339 32.8698 29.5306C32.6904 29.6725 32.5114 29.7362 32.4157 29.766C32.3063 29.7999 32.2005 29.82 32.1132 29.8332C31.9392 29.8595 31.7392 29.8727 31.5342 29.8809C31.1263 29.897 30.5586 29.897 29.848 29.897H14.8732C14.1626 29.897 13.595 29.897 13.1871 29.8809C12.9821 29.8727 12.7821 29.8595 12.6081 29.8332C12.5208 29.82 12.415 29.7999 12.3056 29.766C12.2099 29.7362 12.0309 29.6725 11.8515 29.5306C11.7293 29.4339 11.5105 29.2509 11.3514 28.947C11.1923 28.643 11.1606 28.3476 11.1474 28.1854C11.1258 27.9211 11.182 27.7041 11.2082 27.6109C11.2413 27.4932 11.2837 27.384 11.3217 27.2941C11.3981 27.1135 11.5021 26.9066 11.6182 26.6877C11.8502 26.2505 12.1952 25.6457 12.6342 24.8761L12.6472 24.8534C13.4602 23.4281 14.194 21.2834 14.194 18.147C14.194 15.93 15.0754 13.8229 16.6149 12.2834ZM22.3607 12.397C20.7886 12.397 19.2957 13.0223 18.2069 14.111C17.1209 15.1971 16.5273 16.6509 16.5273 18.147C16.5273 21.7261 15.6833 24.3247 14.6382 26.1571C14.3553 26.653 14.1224 27.0614 13.9359 27.3951C14.2064 27.397 14.5257 27.397 14.901 27.397H29.8203C30.1956 27.397 30.5149 27.397 30.7853 27.3951C30.5989 27.0614 30.366 26.653 30.0831 26.1571C29.038 24.3247 28.194 21.7261 28.194 18.147C28.194 16.6509 27.6004 15.1971 26.5144 14.111C25.4255 13.0223 23.9327 12.397 22.3607 12.397ZM17.694 33.647C17.694 32.9566 18.2163 32.397 18.8606 32.397H25.8607C26.5049 32.397 27.0274 32.9566 27.0274 33.647C27.0274 34.3374 26.5049 34.897 25.8607 34.897H18.8606C18.2163 34.897 17.694 34.3374 17.694 33.647Z" fill="black"/>
</svg>
