<svg width="27" height="27" viewBox="0 0 27 27" fill="none" xmlns="http://www.w3.org/2000/svg">
<path fill-rule="evenodd" clip-rule="evenodd" d="M6.33276 6.31603C9.52385 3.12493 14.3741 2.60935 18.1025 4.76433C18.6205 5.06374 18.7977 5.72638 18.4983 6.24439C18.1989 6.76239 17.5362 6.93959 17.0183 6.64019C14.1178 4.96376 10.3449 5.36803 7.86482 7.84809C4.90335 10.8096 4.90335 15.6111 7.86482 18.5726C10.3449 21.0525 14.1178 21.4568 17.0183 19.7804C17.5362 19.4811 18.1989 19.6582 18.4983 20.1762C18.7977 20.6943 18.6205 21.3569 18.1025 21.6563C14.3741 23.8113 9.52385 23.2957 6.33276 20.1046C2.52515 16.297 2.52515 10.1236 6.33276 6.31603ZM20.0444 9.19428C20.4674 8.77121 21.1534 8.77121 21.5764 9.19428L23.6252 11.2431C23.8186 11.4364 24.0069 11.6246 24.1533 11.7971C24.3141 11.9866 24.487 12.227 24.5889 12.5408C24.7303 12.976 24.7303 13.4447 24.5889 13.8798C24.487 14.1937 24.3141 14.4341 24.1533 14.6235C24.0069 14.796 23.8186 14.9843 23.6252 15.1775L21.5764 17.2263C21.1534 17.6494 20.4674 17.6494 20.0444 17.2263C19.6213 16.8033 19.6213 16.1173 20.0444 15.6943L21.445 14.2936H13.2271C12.6287 14.2936 12.1437 13.8086 12.1437 13.2103C12.1437 12.612 12.6287 12.127 13.2271 12.127H21.445L20.0444 10.7263C19.6213 10.3033 19.6213 9.61734 20.0444 9.19428Z" fill="#E2B2B2"/>
</svg>
