<svg width="20" height="21" viewBox="0 0 20 21" fill="none" xmlns="http://www.w3.org/2000/svg">
<g clip-path="url(#clip0_31_3280)">
<path d="M2.13183 17.2498H17.1682C17.9988 17.2498 18.6736 16.5394 18.6736 15.6652V7.75293L11.1986 13.0015C10.2556 13.6603 9.0444 13.6603 8.10141 13.0015L0.626465 7.75293V15.6652C0.626465 16.5394 1.3013 17.2498 2.13183 17.2498Z" fill="#E2B2B2"/>
<path d="M17.1682 3.77344H2.13183C1.3013 3.77344 0.626465 4.48379 0.626465 5.35803V6.12908L8.8166 11.8755C9.32416 12.2337 9.97877 12.2337 10.4863 11.8755L18.6765 6.12908V5.36108C18.6736 4.48682 17.9988 3.77344 17.1682 3.77344Z" fill="#E2B2B2"/>
</g>
<defs>
<clipPath id="clip0_31_3280">
<rect width="19" height="20" fill="white" transform="translate(0.151367 0.511719)"/>
</clipPath>
</defs>
</svg>
