<svg width="22" height="15" viewBox="0 0 22 15" fill="none" xmlns="http://www.w3.org/2000/svg">
<path fill-rule="evenodd" clip-rule="evenodd" d="M1.31018 3.00543C0.660041 3.00543 0.128112 2.4735 0.128112 1.82336C0.128112 1.17323 0.660041 0.641296 1.31018 0.641296H20.2232C20.8733 0.641296 21.4053 1.17323 21.4053 1.82336C21.4053 2.4735 20.8733 3.00543 20.2232 3.00543H1.31018ZM1.30999 8.91574H20.223C20.8732 8.91574 21.4051 8.38381 21.4051 7.73368C21.4051 7.08354 20.8732 6.55161 20.223 6.55161H1.30999C0.659859 6.55161 0.12793 7.08354 0.12793 7.73368C0.12793 8.38381 0.659859 8.91574 1.30999 8.91574ZM1.30999 14.8261H20.223C20.8732 14.8261 21.4051 14.2941 21.4051 13.644C21.4051 12.9939 20.8732 12.4619 20.223 12.4619H1.30999C0.659859 12.4619 0.12793 12.9939 0.12793 13.644C0.12793 14.2941 0.659859 14.8261 1.30999 14.8261Z" fill="#37474F"/>
</svg>
