<svg width="22" height="31" viewBox="0 0 22 31" fill="none" xmlns="http://www.w3.org/2000/svg">
<path d="M18.3042 22.6589H4.29255C3.06537 22.6589 2.12762 21.5639 2.31633 20.3513L3.48809 12.822C3.54703 12.4433 3.54692 12.0577 3.48777 11.679L3.40495 11.1487C2.64469 6.28151 6.40819 1.88452 11.3344 1.88452C16.2309 1.88452 19.9861 6.23123 19.275 11.0758L19.1716 11.7799C19.1183 12.1433 19.1185 12.5125 19.1724 12.8757L20.2826 20.3656C20.4617 21.5738 19.5256 22.6589 18.3042 22.6589Z" stroke="white" stroke-width="2"/>
<path d="M7.8543 25.7751C7.21235 25.7751 6.67764 26.3034 6.83648 26.9254C7.04131 27.7274 7.45848 28.4674 8.05372 29.0627C8.92565 29.9346 10.1082 30.4244 11.3413 30.4244C12.5744 30.4244 13.757 29.9346 14.6289 29.0627C15.2242 28.4674 15.6414 27.7274 15.8462 26.9254C16.005 26.3034 15.4703 25.7751 14.8284 25.7751V25.7751C14.1864 25.7751 13.6892 26.3262 13.3814 26.8896C13.2762 27.0823 13.1432 27.2608 12.9851 27.4189C12.5492 27.8548 11.9579 28.0997 11.3413 28.0997C10.7248 28.0997 10.1335 27.8548 9.69753 27.4189C9.53946 27.2608 9.40651 27.0823 9.30123 26.8896C8.99348 26.3262 8.49624 25.7751 7.8543 25.7751V25.7751Z" fill="white"/>
</svg>
