<svg width="105" height="103" viewBox="0 0 105 103" fill="none" xmlns="http://www.w3.org/2000/svg">
<g clip-path="url(#clip0_1603_123)">
<mask id="mask0_1603_123" style="mask-type:luminance" maskUnits="userSpaceOnUse" x="0" y="0" width="105" height="103">
<path d="M104.076 0H0.0761719V103H104.076V0Z" fill="white"/>
</mask>
<g mask="url(#mask0_1603_123)">
<path d="M52.0762 103C80.795 103 104.076 79.9427 104.076 51.5C104.076 23.0573 80.795 0 52.0762 0C23.3574 0 0.0761719 23.0573 0.0761719 51.5C0.0761719 79.9427 23.3574 103 52.0762 103Z" fill="#00AF4C"/>
<path d="M38.7891 74.732L65.5272 101.213C87.6723 95.3645 104.076 75.3819 104.076 51.5002C104.076 51.0128 104.076 50.5254 104.076 50.038L83.0793 30.8677L38.7891 74.732Z" fill="#007C36"/>
<path d="M53.3891 63.035C55.6856 65.3094 55.6856 69.2085 53.3891 71.4829L48.632 76.1943C46.3354 78.4687 42.3986 78.4687 40.1021 76.1943L19.2692 55.3993C16.9727 53.1249 16.9727 49.2258 19.2692 46.9514L24.0263 42.24C26.3228 39.9656 30.2598 39.9656 32.5563 42.24L53.3891 63.035Z" fill="white"/>
<path d="M71.5969 27.1311C73.8934 24.8567 77.8303 24.8567 80.1268 27.1311L84.8839 31.8425C87.1805 34.1169 87.1805 38.016 84.8839 40.2904L48.7956 75.8693C46.4991 78.1437 42.5622 78.1437 40.2656 75.8693L35.5085 71.1579C33.212 68.8835 33.212 64.9844 35.5085 62.71L71.5969 27.1311Z" fill="white"/>
</g>
</g>
<defs>
<clipPath id="clip0_1603_123">
<rect width="105" height="103" fill="white"/>
</clipPath>
</defs>
</svg>
