<svg width="32" height="30" viewBox="0 0 32 30" fill="none" xmlns="http://www.w3.org/2000/svg">
<path fill-rule="evenodd" clip-rule="evenodd" d="M20.8939 24.3768C21.2506 24.3768 21.5397 24.1063 21.5397 23.7726C21.5397 23.4389 21.2506 23.1685 20.8939 23.1685C20.5372 23.1685 20.248 23.4389 20.248 23.7726C20.248 24.1063 20.5372 24.3768 20.8939 24.3768ZM20.8939 26.1893C22.3206 26.1893 23.4772 25.1073 23.4772 23.7726C23.4772 22.438 22.3206 21.356 20.8939 21.356C19.4672 21.356 18.3105 22.438 18.3105 23.7726C18.3105 25.1073 19.4672 26.1893 20.8939 26.1893Z" fill="#E2B2B2"/>
<path fill-rule="evenodd" clip-rule="evenodd" d="M13.1439 24.3768C13.5006 24.3768 13.7897 24.1063 13.7897 23.7726C13.7897 23.4389 13.5006 23.1685 13.1439 23.1685C12.7872 23.1685 12.498 23.4389 12.498 23.7726C12.498 24.1063 12.7872 24.3768 13.1439 24.3768ZM13.1439 26.1893C14.5706 26.1893 15.7272 25.1073 15.7272 23.7726C15.7272 22.438 14.5706 21.356 13.1439 21.356C11.7172 21.356 10.5605 22.438 10.5605 23.7726C10.5605 25.1073 11.7172 26.1893 13.1439 26.1893Z" fill="#E2B2B2"/>
<path fill-rule="evenodd" clip-rule="evenodd" d="M3.9421 3.93636C4.23888 3.51992 4.84035 3.40738 5.28552 3.68502L6.79419 4.6259C7.27605 4.9264 7.61621 5.38844 7.74454 5.91671L10.4025 16.8572C10.5695 17.5448 11.2231 18.0328 11.9769 18.0328H22.061C22.8149 18.0328 23.4684 17.5448 23.6355 16.8572L25.6904 8.39882C25.92 7.45366 25.1521 6.55364 24.116 6.55364H14.1127C13.5777 6.55364 13.144 6.1479 13.144 5.6474C13.144 5.14689 13.5777 4.74115 14.1127 4.74115H24.116C26.3954 4.74115 28.0849 6.72111 27.5798 8.80047L25.5248 17.2588C25.1572 18.7717 23.7195 19.8453 22.061 19.8453H11.9769C10.3184 19.8453 8.88069 18.7717 8.51314 17.2588L5.85522 6.31837C5.83688 6.24293 5.78828 6.17693 5.71945 6.13399L4.21079 5.19311C3.76561 4.91547 3.64532 4.35281 3.9421 3.93636Z" fill="#E2B2B2"/>
<path fill-rule="evenodd" clip-rule="evenodd" d="M13.1369 12.33C13.5151 11.9759 14.1284 11.9756 14.5069 12.3294L15.6495 13.3972L19.5307 9.76642C19.909 9.4125 20.5223 9.4125 20.9007 9.76642C21.279 10.1203 21.279 10.6941 20.9007 11.048L16.3349 15.3193C15.9567 15.6731 15.3436 15.6732 14.9652 15.3196L13.1376 13.6116C12.7591 13.2579 12.7588 12.6841 13.1369 12.33Z" fill="#E2B2B2"/>
</svg>
