<svg width="24" height="24" viewBox="0 0 24 24" fill="none" xmlns="http://www.w3.org/2000/svg">
<path d="M15.9998 10.0005C15.4468 10.0005 14.9998 9.55349 14.9998 9.00049V7.00049C14.9998 5.34649 13.6538 4.00049 11.9998 4.00049C10.3458 4.00049 8.99976 5.34649 8.99976 7.00049V9.00049C8.99976 9.55349 8.55276 10.0005 7.99976 10.0005C7.44676 10.0005 6.99976 9.55349 6.99976 9.00049V7.00049C6.99976 4.24349 9.24276 2.00049 11.9998 2.00049C14.7568 2.00049 16.9998 4.24349 16.9998 7.00049V9.00049C16.9998 9.55349 16.5528 10.0005 15.9998 10.0005Z" fill="#E2B2B2"/>
<path d="M19.9998 12.0005V18.0005C19.9998 20.2105 18.2098 22.0005 15.9998 22.0005H7.99976C5.78976 22.0005 3.99976 20.2105 3.99976 18.0005V12.0005C3.99976 9.79049 5.78976 8.00049 7.99976 8.00049H15.9998C18.2098 8.00049 19.9998 9.79049 19.9998 12.0005Z" fill="#E2B2B2"/>
<path d="M11.9998 19.0005C11.4468 19.0005 10.9998 18.5535 10.9998 18.0005V16.0005C10.9998 15.4475 11.4468 15.0005 11.9998 15.0005C12.5528 15.0005 12.9998 15.4475 12.9998 16.0005V18.0005C12.9998 18.5535 12.5528 19.0005 11.9998 19.0005Z" fill="#FEFEFE"/>
<path d="M11.9998 17.0005C10.3458 17.0005 8.99976 15.6545 8.99976 14.0005C8.99976 12.3465 10.3458 11.0005 11.9998 11.0005C13.6538 11.0005 14.9998 12.3465 14.9998 14.0005C14.9998 15.6545 13.6538 17.0005 11.9998 17.0005ZM11.9998 13.0005C11.4478 13.0005 10.9998 13.4485 10.9998 14.0005C10.9998 14.5525 11.4478 15.0005 11.9998 15.0005C12.5518 15.0005 12.9998 14.5525 12.9998 14.0005C12.9998 13.4485 12.5518 13.0005 11.9998 13.0005Z" fill="#FEFEFE"/>
</svg>
