<svg width="22" height="22" viewBox="0 0 22 22" fill="none" xmlns="http://www.w3.org/2000/svg">
<path d="M1.30476 15.0385L9.1125 7.23047C9.68801 6.65495 10.6192 6.64888 11.2022 7.21685L12.9878 8.95652C13.5164 9.4716 14.3609 9.46611 14.8829 8.94418C15.4096 8.41741 15.4096 7.56335 14.8829 7.03658L13.0007 5.15439C12.4198 4.57354 12.4198 3.6318 13.0007 3.05095L14.8821 1.16949C15.463 0.58864 16.4047 0.58864 16.9856 1.16949L21.0053 5.1892C21.5861 5.77005 21.5861 6.71179 21.0053 7.29264L6.99038 21.3076C6.71145 21.5865 6.33313 21.7432 5.93866 21.7432H2.3565C1.53505 21.7432 0.869141 21.0773 0.869141 20.2558V16.0902C0.869141 15.6957 1.02584 15.3174 1.30476 15.0385Z" fill="white"/>
</svg>
