<svg width="24" height="24" viewBox="0 0 24 24" fill="none" xmlns="http://www.w3.org/2000/svg">
<g clip-path="url(#clip0_31_3278)">
<path d="M15.4613 0.511719H7.80857C6.45804 0.51325 5.36364 1.60765 5.3623 2.95817V21.0654C5.36364 22.4159 6.45804 23.5103 7.80857 23.5117H15.4613C16.8118 23.5103 17.9062 22.4159 17.9078 21.0654V2.95817C17.9062 1.60765 16.8118 0.51325 15.4613 0.511719ZM11.635 21.4209C11.0575 21.4209 10.5894 20.9528 10.5894 20.3753C10.5894 19.7979 11.0575 19.3299 11.635 19.3299C12.2124 19.3299 12.6804 19.7979 12.6804 20.3753C12.6804 20.9528 12.2124 21.4209 11.635 21.4209ZM13.2032 3.64808H10.0669C9.77818 3.64808 9.54406 3.41397 9.54406 3.12529C9.54406 2.83662 9.77818 2.60269 10.0669 2.60269H13.2032C13.4919 2.60269 13.7258 2.83662 13.7258 3.12529C13.7258 3.41397 13.4919 3.64808 13.2032 3.64808Z" fill="#E2B2B2"/>
</g>
<defs>
<clipPath id="clip0_31_3278">
<rect width="23" height="23" fill="white" transform="translate(0.151367 0.511719)"/>
</clipPath>
</defs>
</svg>
