<svg width="24" height="25" viewBox="0 0 24 25" fill="none" xmlns="http://www.w3.org/2000/svg">
<g clip-path="url(#clip0_31_3223)">
<path d="M5.7251 7.98096H16.7251C17.1963 7.98096 17.5786 7.58205 17.5786 7.09033C17.5786 6.59861 17.1963 6.19971 16.7251 6.19971H5.7251C5.25387 6.19971 4.87158 6.59861 4.87158 7.09033C4.87158 7.58205 5.25387 7.98096 5.7251 7.98096Z" fill="#E2B2B2"/>
<path d="M13.1071 12.6421C13.1071 12.1504 12.7248 11.7515 12.2536 11.7515H5.7251C5.25387 11.7515 4.87158 12.1504 4.87158 12.6421C4.87158 13.1338 5.25387 13.5327 5.7251 13.5327H12.2536C12.7248 13.5327 13.1071 13.1338 13.1071 12.6421Z" fill="#E2B2B2"/>
<path d="M22.0874 15.3839C22.179 14.3371 22.2406 13.1175 22.2419 11.6957C22.2392 9.02059 22.024 7.06168 21.7945 5.62215C21.3929 3.25027 19.3283 1.0959 17.0552 0.676836C15.6757 0.437305 13.7984 0.212773 11.2343 0.209961C8.67057 0.212773 6.79283 0.437305 5.41328 0.676836C3.14068 1.0959 1.07607 3.25027 0.674473 5.62215C0.444922 7.06168 0.230195 9.02059 0.227051 11.6957C0.230195 14.3709 0.444922 16.3303 0.674473 17.7698C1.07607 20.1417 3.14068 22.2961 5.41373 22.7151C6.79328 22.9546 8.67057 23.1787 11.2347 23.182C12.5967 23.1806 13.7656 23.1164 14.7683 23.0207C15.6595 23.7646 16.7897 24.21 18.0197 24.21C20.8956 24.21 23.2275 21.7771 23.2275 18.7762C23.2275 17.4928 22.8007 16.3134 22.0878 15.3839H22.0874ZM11.2347 21.4007C9.21232 21.3984 7.40287 21.254 5.70348 20.9596C4.94834 20.8186 4.18332 20.3765 3.54947 19.7151C2.91562 19.0537 2.49246 18.2559 2.3568 17.4675C2.07469 15.6961 1.93678 13.8079 1.93408 11.6957C1.93633 9.58449 2.07469 7.69637 2.3568 5.92402C2.49201 5.13605 2.91562 4.33824 3.54947 3.67684C4.18332 3.01543 4.94789 2.57387 5.70348 2.4323C7.40197 2.13793 9.21142 1.99402 11.2347 1.99121C13.2571 1.99355 15.0665 2.13793 16.7659 2.4323C17.5211 2.5734 18.2856 3.01543 18.9199 3.67684C19.5538 4.33824 19.977 5.13605 20.1126 5.92449C20.3947 7.69777 20.5326 9.58543 20.5353 11.6962C20.5344 12.4884 20.5138 13.2482 20.4742 13.9832C19.7429 13.5745 18.9074 13.3429 18.0197 13.3429C15.1438 13.3429 12.8119 15.7757 12.8119 18.7767C12.8119 19.7029 13.0343 20.5743 13.4255 21.3375C12.7212 21.3787 11.993 21.4003 11.2343 21.4007H11.2347ZM18.0197 22.4287C16.0894 22.4287 14.5189 20.7904 14.5189 18.7762C14.5189 16.762 16.0894 15.1237 18.0197 15.1237C19.95 15.1237 21.5205 16.762 21.5205 18.7762C21.5205 20.7904 19.95 22.4287 18.0197 22.4287Z" fill="#E2B2B2"/>
<path d="M18.4781 19.8149C18.3694 19.7961 18.2216 19.7783 18.0199 19.7783C17.8182 19.7783 17.6704 19.7961 17.5617 19.8149C17.3829 19.8477 17.2203 20.0174 17.1884 20.2044C17.1704 20.3179 17.1533 20.4721 17.1533 20.6825C17.1533 20.893 17.1704 21.0472 17.1884 21.1607C17.2198 21.3472 17.3824 21.5169 17.5617 21.5502C17.6704 21.5689 17.8182 21.5868 18.0199 21.5868C18.2216 21.5868 18.3694 21.5689 18.4781 21.5502C18.6569 21.5174 18.8195 21.3477 18.8514 21.1607C18.8693 21.0472 18.8864 20.893 18.8864 20.6825C18.8864 20.4721 18.8693 20.3179 18.8514 20.2044C18.8199 20.0179 18.6573 19.8482 18.4781 19.8149Z" fill="#E2B2B2"/>
<path d="M18.019 19.2237C18.4903 19.2237 18.8726 18.8248 18.8726 18.3331V16.8472C18.8726 16.3554 18.4903 15.9565 18.019 15.9565C17.5478 15.9565 17.1655 16.3554 17.1655 16.8472V18.3331C17.1655 18.8248 17.5478 19.2237 18.019 19.2237Z" fill="#E2B2B2"/>
</g>
<defs>
<clipPath id="clip0_31_3223">
<rect width="23" height="24" fill="white" transform="translate(0.227051 0.209961)"/>
</clipPath>
</defs>
</svg>
