<svg width="25" height="25" viewBox="0 0 25 25" fill="none" xmlns="http://www.w3.org/2000/svg">
<path d="M16.8469 13.293C17.9997 12.3861 18.841 11.1424 19.254 9.73501C19.667 8.32762 19.6311 6.82651 19.1512 5.44051C18.6713 4.05451 17.7714 2.85253 16.5766 2.00182C15.3818 1.1511 13.9515 0.693939 12.4848 0.693939C11.0181 0.693939 9.58783 1.1511 8.39302 2.00182C7.19821 2.85253 6.29827 4.05451 5.8184 5.44051C5.33853 6.82651 5.30259 8.32762 5.71558 9.73501C6.12857 11.1424 6.96995 12.3861 8.12267 13.293C6.14746 14.0843 4.42402 15.3969 3.13608 17.0906C1.84814 18.7844 1.04398 20.796 0.809338 22.9108C0.792354 23.0652 0.805948 23.2215 0.849345 23.3706C0.892741 23.5198 0.96509 23.6589 1.06226 23.7801C1.25851 24.0249 1.54394 24.1816 1.85578 24.2159C2.16762 24.2502 2.48031 24.1593 2.72506 23.963C2.96982 23.7668 3.12659 23.4813 3.16089 23.1695C3.41908 20.8711 4.51502 18.7484 6.23934 17.2069C7.96365 15.6654 10.1954 14.8133 12.5083 14.8133C14.8212 14.8133 17.053 15.6654 18.7773 17.2069C20.5016 18.7484 21.5976 20.8711 21.8558 23.1695C21.8877 23.4584 22.0256 23.7252 22.2427 23.9185C22.4598 24.1117 22.7409 24.2177 23.0315 24.2159H23.1609C23.4691 24.1805 23.7508 24.0246 23.9446 23.7824C24.1384 23.5401 24.2286 23.2311 24.1955 22.9226C23.9598 20.8017 23.1513 18.785 21.8568 17.0886C20.5622 15.3922 18.8304 14.0801 16.8469 13.293ZM12.4848 12.4582C11.5546 12.4582 10.6453 12.1823 9.8719 11.6656C9.09848 11.1488 8.49567 10.4142 8.1397 9.55487C7.78373 8.69549 7.6906 7.74985 7.87207 6.83753C8.05354 5.92522 8.50146 5.08721 9.15921 4.42946C9.81695 3.77172 10.655 3.3238 11.5673 3.14232C12.4796 2.96085 13.4252 3.05399 14.2846 3.40996C15.144 3.76593 15.8785 4.36874 16.3953 5.14216C16.9121 5.91558 17.1879 6.82488 17.1879 7.75507C17.1879 9.00241 16.6924 10.1987 15.8104 11.0807C14.9284 11.9627 13.7322 12.4582 12.4848 12.4582Z" fill="#37474F"/>
</svg>
