<svg width="28" height="27" viewBox="0 0 28 27" fill="none" xmlns="http://www.w3.org/2000/svg">
<path d="M23.371 5.41788C20.6372 3.19163 16.486 3.39475 13.7269 5.76725C10.9678 3.39475 6.8166 3.19163 4.08285 5.41788C2.58941 6.63663 1.71191 8.48913 1.67816 10.5041C1.63597 12.6491 2.54722 14.7048 4.16722 16.1185L10.6725 22.391C11.5163 23.2035 12.6216 23.6098 13.7269 23.6098C14.8322 23.6098 15.9375 23.2035 16.7813 22.391L23.2613 16.1429C24.9066 14.7048 25.8178 12.6491 25.7757 10.5041C25.7419 8.48913 24.8644 6.63663 23.371 5.41788ZM22.0969 14.9729L15.5832 21.2454C14.5622 22.2285 12.8916 22.2285 11.8707 21.2454L5.3316 14.9485C4.0491 13.8191 3.33191 12.2104 3.35722 10.5366C3.39097 8.98475 4.05754 7.571 5.17972 6.65288C6.12472 5.881 7.33129 5.50725 8.5716 5.50725C10.2169 5.50725 11.9128 6.1735 13.0941 7.45725C13.4147 7.7985 14.0391 7.7985 14.3597 7.45725C16.4353 5.21475 20.0635 4.84913 22.2741 6.65288C23.3963 7.571 24.0628 8.98475 24.0966 10.5366C24.1219 12.2104 23.4047 13.8191 22.0969 14.9729Z" fill="#E2B2B2"/>
<path d="M19.9003 6.75129C19.4587 6.61122 18.9861 6.83855 18.8369 7.26146C18.6874 7.68477 18.9234 8.14538 19.3618 8.29139C19.4421 8.31795 21.3208 8.96543 21.3208 10.7721C21.3208 11.2208 21.6987 11.5846 22.1646 11.5846C22.6305 11.5846 23.0083 11.2208 23.0083 10.7721C23.0083 7.78357 20.0272 6.79216 19.9003 6.75129Z" fill="#E2B2B2"/>
</svg>
